ffmpeg version git-2026-04-19-de18feb Copyright (c) 2000-2026 the FFmpeg developers
  built with gcc 9 (Ubuntu 9.4.0-1ubuntu1~20.04.2)
  configuration: --enable-shared --enable-gpl --enable-libx264
  libavutil      60. 30.100 / 60. 30.100
  libavcodec     62. 30.100 / 62. 30.100
  libavformat    62. 13.102 / 62. 13.102
  libavdevice    62.  4.100 / 62.  4.100
  libavfilter    11. 15.101 / 11. 15.101
  libswscale      9.  7.100 /  9.  7.100
  libswresample   6.  4.100 /  6.  4.100
[in#0/x11grab @ 0x55dbdcda0c40] Stream #0: not enough frames to estimate rate; consider increasing probesize
Input #0, x11grab, from ':0.0+0,0':
  Duration: N/A, start: 1777372364.144621, bitrate: 3678192 kb/s
  Stream #0:0: Video: rawvideo (BGR[0] / 0x524742), bgr0, 2870x1602, 3678192 kb/s, 25 fps, 1000k tbr, 1000k tbn, start 1777372364.144621
Stream mapping:
  Stream #0:0 -> #0:0 (rawvideo (native) -> h264 (libx264))
[libx264 @ 0x55dbdcdaef00] using cpu capabilities: MMX2 SSE2Fast SSSE3 SSE4.2 AVX FMA3 BMI2 AVX2
[libx264 @ 0x55dbdcdaef00] profile High, level 5.0
[libx264 @ 0x55dbdcdaef00] 264 - core 155 r2917 0a84d98 - H.264/MPEG-4 AVC codec - Copyleft 2003-2018 - http://www.videolan.org/x264.html - options: cabac=1 ref=1 deblock=1:0:0 analyse=0x3:0x113 me=hex subme=2 psy=1 psy_rd=1.00:0.00 mixed_ref=0 me_range=16 chroma_me=1 trellis=0 8x8dct=1 cqm=0 deadzone=21,11 fast_pskip=1 chroma_qp_offset=0 threads=6 lookahead_threads=2 sliced_threads=0 nr=0 decimate=1 interlaced=0 bluray_compat=0 constrained_intra=0 bframes=3 b_pyramid=2 b_adapt=1 b_bias=0 direct=1 weightb=1 open_gop=0 weightp=1 keyint=250 keyint_min=25 scenecut=40 intra_refresh=0 rc_lookahead=10 rc=crf mbtree=1 crf=23.0 qcomp=0.60 qpmin=0 qpmax=69 qpstep=4 ip_ratio=1.40 aq=1:1.00
Output #0, matroska, to '/home/lmy/catkin_ws/recordings_tmp/exp_10_segment3/screen.mkv':
  Metadata:
    encoder         : Lavf62.13.102
  Stream #0:0: Video: h264 (H264 / 0x34363248), yuv420p(tv, progressive), 2870x1602, q=2-31, 25 fps, 1k tbn
    Metadata:
      encoder         : Lavc62.30.100 libx264
    Side data:
      CPB properties: bitrate max/min/avg: 0/0/0 buffer size: 0 vbv_delay: N/A
frame=    0 fps=0.0 q=0.0 size=       0KiB time=N/A bitrate=N/A speed=N/A elapsed=0:00:00.50    frame=    0 fps=0.0 q=0.0 size=       0KiB time=N/A bitrate=N/A speed=N/A elapsed=0:00:01.00    frame=    0 fps=0.0 q=0.0 size=       0KiB time=N/A bitrate=N/A speed=N/A elapsed=0:00:01.50    frame=    0 fps=0.0 q=0.0 size=       0KiB time=N/A bitrate=N/A speed=N/A elapsed=0:00:02.00    frame=    0 fps=0.0 q=0.0 size=       0KiB time=N/A bitrate=N/A speed=N/A elapsed=0:00:02.50    frame=    0 fps=0.0 q=0.0 size=       0KiB time=N/A bitrate=N/A speed=N/A elapsed=0:00:03.00    frame=    4 fps=1.1 q=28.0 size=       1KiB time=00:00:00.16 bitrate=  29.7kbits/s speed=0.0456x elapsed=0:00:03.50    frame=    6 fps=1.5 q=28.0 size=       1KiB time=00:00:00.48 bitrate=   9.9kbits/s speed=0.12x elapsed=0:00:04.01    frame=   10 fps=2.2 q=28.0 size=       1KiB time=00:00:00.76 bitrate=   6.3kbits/s speed=0.168x elapsed=0:00:04.52    frame=   13 fps=2.6 q=28.0 size=       1KiB time=00:00:00.88 bitrate=   5.4kbits/s speed=0.175x elapsed=0:00:05.03    frame=   15 fps=2.7 q=28.0 size=       1KiB time=00:00:01.04 bitrate=   4.6kbits/s speed=0.188x elapsed=0:00:05.53    frame=   21 fps=3.5 q=26.0 size=       1KiB time=00:00:01.36 bitrate=   3.5kbits/s speed=0.225x elapsed=0:00:06.03    frame=   24 fps=3.7 q=25.0 size=       1KiB time=00:00:01.48 bitrate=   3.2kbits/s speed=0.226x elapsed=0:00:06.53    frame=   26 fps=3.7 q=27.0 size=       1KiB time=00:00:01.60 bitrate=   3.0kbits/s speed=0.227x elapsed=0:00:07.03    frame=   32 fps=4.2 q=27.0 size=       1KiB time=00:00:02.00 bitrate=   2.4kbits/s speed=0.265x elapsed=0:00:07.53    frame=   34 fps=4.2 q=25.0 size=       1KiB time=00:00:02.24 bitrate=   2.1kbits/s speed=0.279x elapsed=0:00:08.04    frame=   38 fps=4.4 q=24.0 size=       1KiB time=00:00:02.56 bitrate=   1.9kbits/s speed= 0.3x elapsed=0:00:08.54    frame=   42 fps=4.6 q=23.0 size=       1KiB time=00:00:03.68 bitrate=   1.3kbits/s speed=0.407x elapsed=0:00:09.04    frame=   46 fps=4.8 q=23.0 size=       1KiB time=00:00:04.68 bitrate=   1.0kbits/s speed=0.49x elapsed=0:00:09.54    frame=   51 fps=5.1 q=28.0 size=     134KiB time=00:00:05.12 bitrate= 214.0kbits/s speed=0.51x elapsed=0:00:10.04    frame=   53 fps=5.0 q=28.0 size=     134KiB time=00:00:05.68 bitrate= 192.9kbits/s speed=0.538x elapsed=0:00:10.54    frame=   58 fps=5.2 q=28.0 size=     134KiB time=00:00:06.04 bitrate= 181.4kbits/s speed=0.547x elapsed=0:00:11.04    frame=   60 fps=5.2 q=27.0 size=     134KiB time=00:00:06.36 bitrate= 172.2kbits/s speed=0.551x elapsed=0:00:11.55    frame=   66 fps=5.5 q=26.0 size=     134KiB time=00:00:07.28 bitrate= 150.5kbits/s speed=0.604x elapsed=0:00:12.05    frame=   69 fps=5.5 q=26.0 size=     134KiB time=00:00:07.60 bitrate= 144.1kbits/s speed=0.605x elapsed=0:00:12.55    frame=   73 fps=5.6 q=26.0 size=     134KiB time=00:00:08.24 bitrate= 132.9kbits/s speed=0.631x elapsed=0:00:13.06    frame=   76 fps=5.6 q=26.0 size=     134KiB time=00:00:08.48 bitrate= 129.2kbits/s speed=0.625x elapsed=0:00:13.56    frame=   82 fps=5.8 q=23.0 size=     134KiB time=00:00:09.36 bitrate= 117.0kbits/s speed=0.666x elapsed=0:00:14.06    frame=   83 fps=5.7 q=26.0 size=     134KiB time=00:00:09.44 bitrate= 116.0kbits/s speed=0.648x elapsed=0:00:14.56    frame=   89 fps=5.9 q=26.0 size=     186KiB time=00:00:10.16 bitrate= 149.7kbits/s speed=0.674x elapsed=0:00:15.06    frame=   92 fps=5.9 q=26.0 size=     186KiB time=00:00:10.76 bitrate= 141.3kbits/s speed=0.691x elapsed=0:00:15.56    frame=   98 fps=6.1 q=23.0 size=     186KiB time=00:00:11.56 bitrate= 131.5kbits/s speed=0.72x elapsed=0:00:16.06    frame=  103 fps=6.2 q=22.0 size=     186KiB time=00:00:12.04 bitrate= 126.3kbits/s speed=0.727x elapsed=0:00:16.56    frame=  107 fps=6.3 q=28.0 size=     186KiB time=00:00:12.72 bitrate= 119.5kbits/s speed=0.745x elapsed=0:00:17.06    frame=  113 fps=6.4 q=27.0 size=     186KiB time=00:00:13.32 bitrate= 114.2kbits/s speed=0.758x elapsed=0:00:17.57    frame=  116 fps=6.4 q=24.0 size=     186KiB time=00:00:13.96 bitrate= 108.9kbits/s speed=0.772x elapsed=0:00:18.07    frame=  123 fps=6.6 q=26.0 size=     186KiB time=00:00:14.84 bitrate= 102.5kbits/s speed=0.799x elapsed=0:00:18.57    frame=  128 fps=6.7 q=24.0 size=     235KiB time=00:00:15.40 bitrate= 125.1kbits/s speed=0.807x elapsed=0:00:19.08    frame=  130 fps=6.6 q=23.0 size=     235KiB time=00:00:15.56 bitrate= 123.8kbits/s speed=0.795x elapsed=0:00:19.58    frame=  136 fps=6.8 q=24.0 size=     235KiB time=00:00:16.20 bitrate= 118.9kbits/s speed=0.807x elapsed=0:00:20.08    frame=  140 fps=6.8 q=24.0 size=     235KiB time=00:00:16.72 bitrate= 115.2kbits/s speed=0.812x elapsed=0:00:20.58    frame=  144 fps=6.8 q=24.0 size=     235KiB time=00:00:17.00 bitrate= 113.3kbits/s speed=0.806x elapsed=0:00:21.08    frame=  150 fps=6.9 q=27.0 size=     235KiB time=00:00:17.64 bitrate= 109.2kbits/s speed=0.817x elapsed=0:00:21.59    frame=  154 fps=7.0 q=24.0 size=     235KiB time=00:00:18.20 bitrate= 105.9kbits/s speed=0.824x elapsed=0:00:22.09    frame=  159 fps=7.0 q=26.0 size=     235KiB time=00:00:18.52 bitrate= 104.0kbits/s speed=0.819x elapsed=0:00:22.60    frame=  164 fps=7.1 q=26.0 size=     235KiB time=00:00:19.16 bitrate= 100.6kbits/s speed=0.828x elapsed=0:00:23.13    frame=  169 fps=7.1 q=27.0 size=     235KiB time=00:00:19.84 bitrate=  97.1kbits/s speed=0.839x elapsed=0:00:23.64    frame=  172 fps=7.1 q=26.0 size=     235KiB time=00:00:20.08 bitrate=  96.0kbits/s speed=0.832x elapsed=0:00:24.14    frame=  178 fps=7.2 q=26.0 size=     256KiB time=00:00:20.68 bitrate= 101.4kbits/s speed=0.839x elapsed=0:00:24.64    frame=  183 fps=7.3 q=26.0 size=     256KiB time=00:00:21.40 bitrate=  98.0kbits/s speed=0.851x elapsed=0:00:25.14    frame=  189 fps=7.4 q=26.0 size=     256KiB time=00:00:21.88 bitrate=  95.8kbits/s speed=0.853x elapsed=0:00:25.64    frame=  191 fps=7.3 q=28.0 size=     256KiB time=00:00:22.04 bitrate=  95.2kbits/s speed=0.843x elapsed=0:00:26.15    frame=  198 fps=7.4 q=28.0 size=     256KiB time=00:00:22.84 bitrate=  91.8kbits/s speed=0.857x elapsed=0:00:26.66    frame=  202 fps=7.4 q=27.0 size=     256KiB time=00:00:23.12 bitrate=  90.7kbits/s speed=0.851x elapsed=0:00:27.17    frame=  204 fps=7.4 q=26.0 size=     256KiB time=00:00:23.56 bitrate=  89.0kbits/s speed=0.851x elapsed=0:00:27.68    frame=  210 fps=7.5 q=28.0 size=     256KiB time=00:00:24.28 bitrate=  86.4kbits/s speed=0.861x elapsed=0:00:28.18    frame=  215 fps=7.5 q=28.0 size=     256KiB time=00:00:24.76 bitrate=  84.7kbits/s speed=0.863x elapsed=0:00:28.68    frame=  218 fps=7.5 q=27.0 size=     256KiB time=00:00:24.96 bitrate=  84.0kbits/s speed=0.855x elapsed=0:00:29.19    frame=  224 fps=7.5 q=25.0 size=     256KiB time=00:00:25.60 bitrate=  81.9kbits/s speed=0.862x elapsed=0:00:29.69    frame=  230 fps=7.6 q=25.0 size=     256KiB time=00:00:26.40 bitrate=  79.4kbits/s speed=0.874x elapsed=0:00:30.19    frame=  232 fps=7.6 q=25.0 size=     256KiB time=00:00:26.60 bitrate=  78.8kbits/s speed=0.867x elapsed=0:00:30.69    frame=  238 fps=7.6 q=25.0 size=     256KiB time=00:00:27.16 bitrate=  77.2kbits/s speed=0.871x elapsed=0:00:31.19    frame=  240 fps=7.6 q=26.0 size=     256KiB time=00:00:27.32 bitrate=  76.8kbits/s speed=0.862x elapsed=0:00:31.69    frame=  246 fps=7.6 q=23.0 size=     256KiB time=00:00:28.24 bitrate=  74.3kbits/s speed=0.877x elapsed=0:00:32.20    frame=  249 fps=7.6 q=26.0 size=     256KiB time=00:00:28.48 bitrate=  73.6kbits/s speed=0.871x elapsed=0:00:32.70    frame=  253 fps=7.6 q=26.0 size=     256KiB time=00:00:28.76 bitrate=  72.9kbits/s speed=0.866x elapsed=0:00:33.20    frame=  256 fps=7.6 q=27.0 size=     256KiB time=00:00:29.32 bitrate=  71.5kbits/s speed=0.87x elapsed=0:00:33.70    frame=  262 fps=7.7 q=28.0 size=     256KiB time=00:00:29.80 bitrate=  70.4kbits/s speed=0.871x elapsed=0:00:34.21    frame=  267 fps=7.7 q=24.0 size=     256KiB time=00:00:30.44 bitrate=  68.9kbits/s speed=0.877x elapsed=0:00:34.71    frame=  272 fps=7.7 q=25.0 size=     256KiB time=00:00:31.00 bitrate=  67.7kbits/s speed=0.88x elapsed=0:00:35.21    frame=  276 fps=7.7 q=24.0 size=     256KiB time=00:00:31.28 bitrate=  67.0kbits/s speed=0.876x elapsed=0:00:35.71    frame=  280 fps=7.7 q=25.0 size=     256KiB time=00:00:32.08 bitrate=  65.4kbits/s speed=0.886x elapsed=0:00:36.21    frame=  286 fps=7.8 q=27.0 size=     256KiB time=00:00:32.76 bitrate=  64.0kbits/s speed=0.892x elapsed=0:00:36.72    frame=  290 fps=7.8 q=26.0 size=     256KiB time=00:00:33.32 bitrate=  62.9kbits/s speed=0.895x elapsed=0:00:37.23    frame=  296 fps=7.8 q=27.0 size=     256KiB time=00:00:33.96 bitrate=  61.8kbits/s speed= 0.9x elapsed=0:00:37.73    frame=  302 fps=7.9 q=28.0 size=     256KiB time=00:00:34.68 bitrate=  60.5kbits/s speed=0.907x elapsed=0:00:38.23    frame=  304 fps=7.8 q=27.0 size=     256KiB time=00:00:34.76 bitrate=  60.3kbits/s speed=0.897x elapsed=0:00:38.73    frame=  312 fps=8.0 q=25.0 size=     256KiB time=00:00:35.68 bitrate=  58.8kbits/s speed=0.909x elapsed=0:00:39.23    frame=  318 fps=8.0 q=25.0 size=     256KiB time=00:00:36.28 bitrate=  57.8kbits/s speed=0.913x elapsed=0:00:39.75    frame=  321 fps=8.0 q=25.0 size=     256KiB time=00:00:36.72 bitrate=  57.1kbits/s speed=0.912x elapsed=0:00:40.25    frame=  327 fps=8.0 q=25.0 size=     256KiB time=00:00:37.28 bitrate=  56.3kbits/s speed=0.915x elapsed=0:00:40.76    frame=  333 fps=8.1 q=24.0 size=     256KiB time=00:00:37.80 bitrate=  55.5kbits/s speed=0.916x elapsed=0:00:41.26    frame=  338 fps=8.1 q=25.0 size=     256KiB time=00:00:38.28 bitrate=  54.8kbits/s speed=0.916x elapsed=0:00:41.76    frame=  344 fps=8.1 q=27.0 size=     512KiB time=00:00:39.00 bitrate= 107.5kbits/s speed=0.923x elapsed=0:00:42.27    frame=  348 fps=8.1 q=26.0 size=     512KiB time=00:00:39.24 bitrate= 106.9kbits/s speed=0.917x elapsed=0:00:42.77    frame=  354 fps=8.2 q=26.0 size=     512KiB time=00:00:39.76 bitrate= 105.5kbits/s speed=0.919x elapsed=0:00:43.27    frame=  359 fps=8.2 q=26.0 size=     512KiB time=00:00:40.36 bitrate= 103.9kbits/s speed=0.922x elapsed=0:00:43.78    frame=  365 fps=8.2 q=25.0 size=     512KiB time=00:00:40.84 bitrate= 102.7kbits/s speed=0.922x elapsed=0:00:44.28    frame=  369 fps=8.2 q=24.0 size=     512KiB time=00:00:41.28 bitrate= 101.6kbits/s speed=0.922x elapsed=0:00:44.78    frame=  375 fps=8.3 q=26.0 size=     512KiB time=00:00:41.88 bitrate= 100.2kbits/s speed=0.925x elapsed=0:00:45.28    frame=  379 fps=8.3 q=26.0 size=     512KiB time=00:00:42.20 bitrate=  99.4kbits/s speed=0.922x elapsed=0:00:45.79    frame=  386 fps=8.3 q=28.0 size=     512KiB time=00:00:42.84 bitrate=  97.9kbits/s speed=0.925x elapsed=0:00:46.29    frame=  392 fps=8.4 q=24.0 size=     512KiB time=00:00:43.36 bitrate=  96.7kbits/s speed=0.926x elapsed=0:00:46.80    frame=  396 fps=8.4 q=26.0 size=     512KiB time=00:00:43.76 bitrate=  95.8kbits/s speed=0.925x elapsed=0:00:47.30    frame=  401 fps=8.4 q=27.0 size=     512KiB time=00:00:44.32 bitrate=  94.6kbits/s speed=0.927x elapsed=0:00:47.80    frame=  405 fps=8.4 q=28.0 size=     512KiB time=00:00:44.68 bitrate=  93.9kbits/s speed=0.925x elapsed=0:00:48.30    frame=  408 fps=8.4 q=24.0 size=     512KiB time=00:00:45.00 bitrate=  93.2kbits/s speed=0.922x elapsed=0:00:48.80    frame=  414 fps=8.4 q=25.0 size=     512KiB time=00:00:45.52 bitrate=  92.1kbits/s speed=0.923x elapsed=0:00:49.31    frame=  418 fps=8.4 q=24.0 size=     512KiB time=00:00:45.96 bitrate=  91.3kbits/s speed=0.923x elapsed=0:00:49.81    frame=  423 fps=8.4 q=26.0 size=     512KiB time=00:00:46.44 bitrate=  90.3kbits/s speed=0.923x elapsed=0:00:50.31    frame=  429 fps=8.4 q=26.0 size=     512KiB time=00:00:47.04 bitrate=  89.2kbits/s speed=0.926x elapsed=0:00:50.81    frame=  433 fps=8.4 q=25.0 size=     512KiB time=00:00:47.32 bitrate=  88.6kbits/s speed=0.922x elapsed=0:00:51.32    frame=  439 fps=8.5 q=26.0 size=     512KiB time=00:00:48.00 bitrate=  87.4kbits/s speed=0.926x elapsed=0:00:51.82    frame=  445 fps=8.5 q=25.0 size=     512KiB time=00:00:48.64 bitrate=  86.2kbits/s speed=0.93x elapsed=0:00:52.32    frame=  449 fps=8.5 q=23.0 size=     512KiB time=00:00:49.16 bitrate=  85.3kbits/s speed=0.931x elapsed=0:00:52.82    frame=  452 fps=8.5 q=26.0 size=     512KiB time=00:00:49.36 bitrate=  85.0kbits/s speed=0.925x elapsed=0:00:53.33    frame=  458 fps=8.5 q=26.0 size=     512KiB time=00:00:50.12 bitrate=  83.7kbits/s speed=0.931x elapsed=0:00:53.83    frame=  463 fps=8.5 q=28.0 size=     512KiB time=00:00:50.60 bitrate=  82.9kbits/s speed=0.931x elapsed=0:00:54.33    frame=  469 fps=8.6 q=27.0 size=     512KiB time=00:00:51.12 bitrate=  82.0kbits/s speed=0.932x elapsed=0:00:54.83    frame=  471 fps=8.5 q=26.0 size=     512KiB time=00:00:51.44 bitrate=  81.5kbits/s speed=0.93x elapsed=0:00:55.33    frame=  478 fps=8.6 q=28.0 size=     512KiB time=00:00:52.12 bitrate=  80.5kbits/s speed=0.933x elapsed=0:00:55.83    frame=  482 fps=8.6 q=25.0 size=     512KiB time=00:00:52.44 bitrate=  80.0kbits/s speed=0.931x elapsed=0:00:56.34    frame=  487 fps=8.6 q=24.0 size=     512KiB time=00:00:53.00 bitrate=  79.1kbits/s speed=0.932x elapsed=0:00:56.84    frame=  491 fps=8.6 q=23.0 size=     512KiB time=00:00:53.60 bitrate=  78.3kbits/s speed=0.935x elapsed=0:00:57.34    frame=  495 fps=8.6 q=24.0 size=     512KiB time=00:00:53.92 bitrate=  77.8kbits/s speed=0.932x elapsed=0:00:57.85    frame=  500 fps=8.6 q=25.0 size=     512KiB time=00:00:54.24 bitrate=  77.3kbits/s speed=0.93x elapsed=0:00:58.35    frame=  505 fps=8.6 q=28.0 size=     512KiB time=00:00:54.96 bitrate=  76.3kbits/s speed=0.934x elapsed=0:00:58.85    frame=  510 fps=8.6 q=28.0 size=     512KiB time=00:00:55.52 bitrate=  75.5kbits/s speed=0.935x elapsed=0:00:59.36    frame=  514 fps=8.6 q=27.0 size=     512KiB time=00:00:55.84 bitrate=  75.1kbits/s speed=0.933x elapsed=0:00:59.86    frame=  520 fps=8.6 q=24.0 size=     512KiB time=00:00:56.52 bitrate=  74.2kbits/s speed=0.936x elapsed=0:01:00.36    frame=  522 fps=8.6 q=24.0 size=     512KiB time=00:00:56.72 bitrate=  73.9kbits/s speed=0.932x elapsed=0:01:00.86    frame=  528 fps=8.6 q=26.0 size=     512KiB time=00:00:57.40 bitrate=  73.1kbits/s speed=0.935x elapsed=0:01:01.36    frame=  534 fps=8.6 q=27.0 size=     512KiB time=00:00:58.08 bitrate=  72.2kbits/s speed=0.939x elapsed=0:01:01.86    frame=  538 fps=8.6 q=27.0 size=     512KiB time=00:00:58.52 bitrate=  71.7kbits/s speed=0.938x elapsed=0:01:02.36    frame=  541 fps=8.6 q=25.0 size=     512KiB time=00:00:58.84 bitrate=  71.3kbits/s speed=0.936x elapsed=0:01:02.86    frame=  548 fps=8.6 q=25.0 size=     768KiB time=00:00:59.44 bitrate= 105.8kbits/s speed=0.938x elapsed=0:01:03.37    frame=  553 fps=8.7 q=26.0 size=     768KiB time=00:01:00.16 bitrate= 104.6kbits/s speed=0.942x elapsed=0:01:03.87    frame=  558 fps=8.7 q=27.0 size=     768KiB time=00:01:00.48 bitrate= 104.0kbits/s speed=0.94x elapsed=0:01:04.37    frame=  563 fps=8.7 q=27.0 size=     768KiB time=00:01:01.20 bitrate= 102.8kbits/s speed=0.943x elapsed=0:01:04.87    frame=  565 fps=8.6 q=26.0 size=     768KiB time=00:01:01.36 bitrate= 102.5kbits/s speed=0.939x elapsed=0:01:05.37    frame=  571 fps=8.7 q=25.0 size=     768KiB time=00:01:01.96 bitrate= 101.5kbits/s speed=0.941x elapsed=0:01:05.87    frame=  579 fps=8.7 q=26.0 size=     768KiB time=00:01:02.76 bitrate= 100.2kbits/s speed=0.945x elapsed=0:01:06.38    frame=  584 fps=8.7 q=25.0 size=     768KiB time=00:01:03.40 bitrate=  99.2kbits/s speed=0.948x elapsed=0:01:06.88    frame=  591 fps=8.8 q=26.0 size=     768KiB time=00:01:04.04 bitrate=  98.2kbits/s speed=0.95x elapsed=0:01:07.38    frame=  596 fps=8.8 q=22.0 size=     768KiB time=00:01:04.48 bitrate=  97.6kbits/s speed=0.95x elapsed=0:01:07.88    frame=  601 fps=8.8 q=25.0 size=     768KiB time=00:01:05.08 bitrate=  96.7kbits/s speed=0.952x elapsed=0:01:08.39    frame=  605 fps=8.8 q=26.0 size=     768KiB time=00:01:05.60 bitrate=  95.9kbits/s speed=0.952x elapsed=0:01:08.89    frame=  611 fps=8.8 q=27.0 size=     768KiB time=00:01:06.16 bitrate=  95.1kbits/s speed=0.953x elapsed=0:01:09.39    frame=  614 fps=8.8 q=28.0 size=     768KiB time=00:01:06.44 bitrate=  94.7kbits/s speed=0.95x elapsed=0:01:09.90    frame=  620 fps=8.8 q=27.0 size=     768KiB time=00:01:06.88 bitrate=  94.1kbits/s speed=0.95x elapsed=0:01:10.40    frame=  625 fps=8.8 q=28.0 size=     768KiB time=00:01:07.40 bitrate=  93.3kbits/s speed=0.951x elapsed=0:01:10.90    frame=  630 fps=8.8 q=27.0 size=     768KiB time=00:01:07.68 bitrate=  93.0kbits/s speed=0.948x elapsed=0:01:11.40    frame=  635 fps=8.8 q=25.0 size=     768KiB time=00:01:08.20 bitrate=  92.3kbits/s speed=0.948x elapsed=0:01:11.91    frame=  639 fps=8.8 q=23.0 size=     768KiB time=00:01:08.60 bitrate=  91.7kbits/s speed=0.947x elapsed=0:01:12.41    frame=  645 fps=8.8 q=26.0 size=     768KiB time=00:01:09.24 bitrate=  90.9kbits/s speed=0.95x elapsed=0:01:12.91    frame=  651 fps=8.9 q=26.0 size=     768KiB time=00:01:09.72 bitrate=  90.2kbits/s speed=0.95x elapsed=0:01:13.42    frame=  657 fps=8.9 q=26.0 size=     768KiB time=00:01:10.40 bitrate=  89.4kbits/s speed=0.952x elapsed=0:01:13.93    frame=  661 fps=8.9 q=26.0 size=     768KiB time=00:01:10.80 bitrate=  88.9kbits/s speed=0.951x elapsed=0:01:14.43    frame=  668 fps=8.9 q=26.0 size=     768KiB time=00:01:11.56 bitrate=  87.9kbits/s speed=0.955x elapsed=0:01:14.93    frame=  674 fps=8.9 q=26.0 size=     768KiB time=00:01:12.20 bitrate=  87.1kbits/s speed=0.957x elapsed=0:01:15.43    frame=  678 fps=8.9 q=27.0 size=     768KiB time=00:01:12.64 bitrate=  86.6kbits/s speed=0.957x elapsed=0:01:15.94    frame=  683 fps=8.9 q=28.0 size=     768KiB time=00:01:13.08 bitrate=  86.1kbits/s speed=0.956x elapsed=0:01:16.44    frame=  688 fps=8.9 q=28.0 size=     768KiB time=00:01:13.48 bitrate=  85.6kbits/s speed=0.955x elapsed=0:01:16.94    frame=  694 fps=9.0 q=24.0 size=     768KiB time=00:01:13.92 bitrate=  85.1kbits/s speed=0.955x elapsed=0:01:17.44    frame=  698 fps=9.0 q=26.0 size=     768KiB time=00:01:14.28 bitrate=  84.7kbits/s speed=0.953x elapsed=0:01:17.94    frame=  702 fps=8.9 q=26.0 size=     768KiB time=00:01:14.80 bitrate=  84.1kbits/s speed=0.953x elapsed=0:01:18.45    frame=  709 fps=9.0 q=26.0 size=    1024KiB time=00:01:15.40 bitrate= 111.3kbits/s speed=0.955x elapsed=0:01:18.95    frame=  713 fps=9.0 q=28.0 size=    1024KiB time=00:01:15.76 bitrate= 110.7kbits/s speed=0.953x elapsed=0:01:19.46    frame=  719 fps=9.0 q=28.0 size=    1024KiB time=00:01:16.32 bitrate= 109.9kbits/s speed=0.954x elapsed=0:01:19.96    frame=  721 fps=9.0 q=26.0 size=    1024KiB time=00:01:16.48 bitrate= 109.7kbits/s speed=0.95x elapsed=0:01:20.46    frame=  727 fps=9.0 q=26.0 size=    1024KiB time=00:01:17.16 bitrate= 108.7kbits/s speed=0.953x elapsed=0:01:20.96    frame=  730 fps=9.0 q=27.0 size=    1024KiB time=00:01:17.48 bitrate= 108.3kbits/s speed=0.951x elapsed=0:01:21.46    frame=  738 fps=9.0 q=26.0 size=    1024KiB time=00:01:18.28 bitrate= 107.2kbits/s speed=0.955x elapsed=0:01:21.97    frame=  742 fps=9.0 q=23.0 size=    1024KiB time=00:01:18.76 bitrate= 106.5kbits/s speed=0.955x elapsed=0:01:22.47    frame=  747 fps=9.0 q=25.0 size=    1024KiB time=00:01:19.12 bitrate= 106.0kbits/s speed=0.954x elapsed=0:01:22.97    frame=  750 fps=9.0 q=25.0 size=    1024KiB time=00:01:19.44 bitrate= 105.6kbits/s speed=0.952x elapsed=0:01:23.47    frame=  756 fps=9.0 q=25.0 size=    1024KiB time=00:01:20.16 bitrate= 104.6kbits/s speed=0.955x elapsed=0:01:23.97    frame=  760 fps=9.0 q=27.0 size=    1024KiB time=00:01:20.68 bitrate= 104.0kbits/s speed=0.955x elapsed=0:01:24.48    frame=  764 fps=9.0 q=27.0 size=    1024KiB time=00:01:21.08 bitrate= 103.5kbits/s speed=0.954x elapsed=0:01:24.99    frame=  770 fps=9.0 q=26.0 size=    1024KiB time=00:01:21.76 bitrate= 102.6kbits/s speed=0.956x elapsed=0:01:25.49    frame=  775 fps=9.0 q=24.0 size=    1024KiB time=00:01:22.20 bitrate= 102.1kbits/s speed=0.956x elapsed=0:01:25.99    frame=  778 fps=9.0 q=25.0 size=    1024KiB time=00:01:22.44 bitrate= 101.8kbits/s speed=0.953x elapsed=0:01:26.49    frame=  785 fps=9.0 q=26.0 size=    1024KiB time=00:01:23.12 bitrate= 100.9kbits/s speed=0.955x elapsed=0:01:27.00    frame=  789 fps=9.0 q=26.0 size=    1024KiB time=00:01:23.80 bitrate= 100.1kbits/s speed=0.958x elapsed=0:01:27.50    frame=  795 fps=9.0 q=26.0 size=    1024KiB time=00:01:24.48 bitrate=  99.3kbits/s speed=0.96x elapsed=0:01:28.00    frame=  802 fps=9.1 q=28.0 size=    1280KiB time=00:01:25.00 bitrate= 123.4kbits/s speed=0.96x elapsed=0:01:28.50    frame=  805 fps=9.0 q=27.0 size=    1280KiB time=00:01:25.40 bitrate= 122.8kbits/s speed=0.959x elapsed=0:01:29.00    frame=  811 fps=9.1 q=26.0 size=    1280KiB time=00:01:26.08 bitrate= 121.8kbits/s speed=0.962x elapsed=0:01:29.50    frame=  816 fps=9.1 q=26.0 size=    1280KiB time=00:01:26.60 bitrate= 121.1kbits/s speed=0.962x elapsed=0:01:30.00    frame=  821 fps=9.1 q=27.0 size=    1280KiB time=00:01:27.04 bitrate= 120.5kbits/s speed=0.962x elapsed=0:01:30.51    frame=  826 fps=9.1 q=25.0 size=    1280KiB time=00:01:27.52 bitrate= 119.8kbits/s speed=0.961x elapsed=0:01:31.02    frame=  832 fps=9.1 q=28.0 size=    1280KiB time=00:01:28.04 bitrate= 119.1kbits/s speed=0.962x elapsed=0:01:31.52    frame=  838 fps=9.1 q=27.0 size=    1280KiB time=00:01:28.64 bitrate= 118.3kbits/s speed=0.963x elapsed=0:01:32.03    frame=  843 fps=9.1 q=26.0 size=    1280KiB time=00:01:29.00 bitrate= 117.8kbits/s speed=0.962x elapsed=0:01:32.54    frame=  849 fps=9.1 q=27.0 size=    1280KiB time=00:01:29.68 bitrate= 116.9kbits/s speed=0.964x elapsed=0:01:33.04    frame=  856 fps=9.2 q=28.0 size=    1280KiB time=00:01:30.40 bitrate= 116.0kbits/s speed=0.966x elapsed=0:01:33.54    frame=  862 fps=9.2 q=28.0 size=    1280KiB time=00:01:30.96 bitrate= 115.3kbits/s speed=0.967x elapsed=0:01:34.05    frame=  867 fps=9.2 q=28.0 size=    1280KiB time=00:01:31.36 bitrate= 114.8kbits/s speed=0.966x elapsed=0:01:34.55    frame=  872 fps=9.2 q=26.0 size=    1280KiB time=00:01:31.88 bitrate= 114.1kbits/s speed=0.967x elapsed=0:01:35.06    frame=  878 fps=9.2 q=25.0 size=    1280KiB time=00:01:32.40 bitrate= 113.5kbits/s speed=0.967x elapsed=0:01:35.56    frame=  885 fps=9.2 q=28.0 size=    1280KiB time=00:01:33.08 bitrate= 112.7kbits/s speed=0.969x elapsed=0:01:36.08    frame=  890 fps=9.2 q=27.0 size=    1280KiB time=00:01:33.40 bitrate= 112.3kbits/s speed=0.967x elapsed=0:01:36.59    frame=  895 fps=9.2 q=26.0 size=    1280KiB time=00:01:33.80 bitrate= 111.8kbits/s speed=0.966x elapsed=0:01:37.09    frame=  900 fps=9.2 q=26.0 size=    1280KiB time=00:01:34.20 bitrate= 111.3kbits/s speed=0.965x elapsed=0:01:37.59    frame=  905 fps=9.2 q=27.0 size=    1280KiB time=00:01:34.68 bitrate= 110.7kbits/s speed=0.965x elapsed=0:01:38.09    frame=  910 fps=9.2 q=27.0 size=    1280KiB time=00:01:35.08 bitrate= 110.3kbits/s speed=0.964x elapsed=0:01:38.60    frame=  916 fps=9.2 q=26.0 size=    1280KiB time=00:01:35.72 bitrate= 109.5kbits/s speed=0.966x elapsed=0:01:39.11    frame=  921 fps=9.2 q=26.0 size=    1280KiB time=00:01:36.20 bitrate= 109.0kbits/s speed=0.966x elapsed=0:01:39.62    frame=  926 fps=9.2 q=26.0 size=    1280KiB time=00:01:36.60 bitrate= 108.5kbits/s speed=0.965x elapsed=0:01:40.12    frame=  931 fps=9.3 q=24.0 size=    1280KiB time=00:01:37.00 bitrate= 108.1kbits/s speed=0.964x elapsed=0:01:40.62    frame=  937 fps=9.3 q=23.0 size=    1280KiB time=00:01:37.60 bitrate= 107.4kbits/s speed=0.965x elapsed=0:01:41.12    frame=  941 fps=9.3 q=23.0 size=    1280KiB time=00:01:37.96 bitrate= 107.0kbits/s speed=0.964x elapsed=0:01:41.63    frame=  946 fps=9.3 q=26.0 size=    1280KiB time=00:01:38.60 bitrate= 106.3kbits/s speed=0.965x elapsed=0:01:42.13    frame=  951 fps=9.3 q=22.0 size=    1280KiB time=00:01:39.00 bitrate= 105.9kbits/s speed=0.965x elapsed=0:01:42.63    frame=  956 fps=9.3 q=24.0 size=    1280KiB time=00:01:39.52 bitrate= 105.4kbits/s speed=0.965x elapsed=0:01:43.14    frame=  959 fps=9.3 q=26.0 size=    1280KiB time=00:01:39.76 bitrate= 105.1kbits/s speed=0.963x elapsed=0:01:43.64    frame=  962 fps=9.2 q=26.0 size=    1280KiB time=00:01:40.20 bitrate= 104.6kbits/s speed=0.962x elapsed=0:01:44.14    frame=  966 fps=9.2 q=26.0 size=    1280KiB time=00:01:40.52 bitrate= 104.3kbits/s speed=0.961x elapsed=0:01:44.64    frame=  968 fps=9.2 q=27.0 size=    1280KiB time=00:01:40.68 bitrate= 104.1kbits/s speed=0.957x elapsed=0:01:45.15    frame=  975 fps=9.2 q=25.0 size=    1280KiB time=00:01:41.28 bitrate= 103.5kbits/s speed=0.959x elapsed=0:01:45.65    frame=  979 fps=9.2 q=25.0 size=    1280KiB time=00:01:41.76 bitrate= 103.0kbits/s speed=0.959x elapsed=0:01:46.15    frame=  985 fps=9.2 q=25.0 size=    1280KiB time=00:01:42.44 bitrate= 102.4kbits/s speed=0.96x elapsed=0:01:46.65    frame=  988 fps=9.2 q=23.0 size=    1280KiB time=00:01:42.68 bitrate= 102.1kbits/s speed=0.958x elapsed=0:01:47.15    frame=  993 fps=9.2 q=21.0 size=    1280KiB time=00:01:43.32 bitrate= 101.5kbits/s speed=0.96x elapsed=0:01:47.66    frame=  996 fps=9.2 q=22.0 size=    1280KiB time=00:01:43.68 bitrate= 101.1kbits/s speed=0.959x elapsed=0:01:48.16    frame= 1003 fps=9.2 q=26.0 size=    1280KiB time=00:01:44.60 bitrate= 100.2kbits/s speed=0.963x elapsed=0:01:48.66    frame= 1006 fps=9.2 q=25.0 size=    1280KiB time=00:01:45.28 bitrate=  99.6kbits/s speed=0.964x elapsed=0:01:49.16    frame= 1012 fps=9.2 q=25.0 size=    1280KiB time=00:01:45.76 bitrate=  99.1kbits/s speed=0.964x elapsed=0:01:49.66    frame= 1017 fps=9.2 q=26.0 size=    1280KiB time=00:01:46.16 bitrate=  98.8kbits/s speed=0.964x elapsed=0:01:50.17    frame= 1022 fps=9.2 q=25.0 size=    1280KiB time=00:01:46.72 bitrate=  98.3kbits/s speed=0.964x elapsed=0:01:50.67    frame= 1026 fps=9.2 q=25.0 size=    1280KiB time=00:01:47.28 bitrate=  97.7kbits/s speed=0.965x elapsed=0:01:51.17    frame= 1031 fps=9.2 q=27.0 size=    1280KiB time=00:01:47.80 bitrate=  97.3kbits/s speed=0.965x elapsed=0:01:51.67    frame= 1035 fps=9.2 q=28.0 size=    1280KiB time=00:01:48.40 bitrate=  96.7kbits/s speed=0.966x elapsed=0:01:52.17    frame= 1041 fps=9.2 q=24.0 size=    1280KiB time=00:01:48.80 bitrate=  96.4kbits/s speed=0.966x elapsed=0:01:52.67    frame= 1048 fps=9.3 q=22.0 size=    1536KiB time=00:01:49.60 bitrate= 114.8kbits/s speed=0.968x elapsed=0:01:53.18    frame= 1050 fps=9.2 q=25.0 size=    1536KiB time=00:01:49.72 bitrate= 114.7kbits/s speed=0.965x elapsed=0:01:53.68    frame= 1056 fps=9.2 q=25.0 size=    1536KiB time=00:01:50.56 bitrate= 113.8kbits/s speed=0.968x elapsed=0:01:54.18    frame= 1060 fps=9.2 q=25.0 size=    1536KiB time=00:01:50.80 bitrate= 113.6kbits/s speed=0.966x elapsed=0:01:54.68    frame= 1066 fps=9.3 q=24.0 size=    1536KiB time=00:01:51.52 bitrate= 112.8kbits/s speed=0.968x elapsed=0:01:55.18    frame= 1071 fps=9.3 q=26.0 size=    1536KiB time=00:01:51.92 bitrate= 112.4kbits/s speed=0.967x elapsed=0:01:55.68    [out#0/matroska @ 0x55dbdcdad500] Error writing trailer: Immediate exit requested
[out#0/matroska @ 0x55dbdcdad500] Error closing file: Immediate exit requested
[out#0/matroska @ 0x55dbdcdad500] video:2126KiB audio:0KiB subtitle:0KiB other streams:0KiB global headers:0KiB muxing overhead: unknown
frame= 1110 fps=9.5 q=-1.0 Lsize=    1536KiB time=00:01:56.00 bitrate= 108.5kbits/s speed=0.991x elapsed=0:01:57.00    
[libx264 @ 0x55dbdcdaef00] frame I:6     Avg QP: 8.31  size:149668
[libx264 @ 0x55dbdcdaef00] frame P:280   Avg QP:15.58  size:  2781
[libx264 @ 0x55dbdcdaef00] frame B:824   Avg QP:22.28  size:   606
[libx264 @ 0x55dbdcdaef00] consecutive B-frames:  0.8%  0.4%  0.8% 98.0%
[libx264 @ 0x55dbdcdaef00] mb I  I16..4: 87.1%  1.0% 11.9%
[libx264 @ 0x55dbdcdaef00] mb P  I16..4:  0.4%  0.1%  0.1%  P16..4:  0.4%  0.1%  0.1%  0.0%  0.0%    skip:98.9%
[libx264 @ 0x55dbdcdaef00] mb B  I16..4:  0.1%  0.0%  0.0%  B16..8:  0.3%  0.1%  0.0%  direct: 0.0%  skip:99.5%  L0:46.4% L1:49.0% BI: 4.7%
[libx264 @ 0x55dbdcdaef00] 8x8 transform intra:3.2% inter:5.6%
[libx264 @ 0x55dbdcdaef00] coded y,uvDC,uvAC intra: 13.1% 19.8% 16.9% inter: 0.1% 0.1% 0.1%
[libx264 @ 0x55dbdcdaef00] i16 v,h,dc,p: 65% 34%  1%  0%
[libx264 @ 0x55dbdcdaef00] i8 v,h,dc,ddl,ddr,vr,hd,vl,hu: 16% 13% 67%  1%  0%  0%  1%  0%  0%
[libx264 @ 0x55dbdcdaef00] i4 v,h,dc,ddl,ddr,vr,hd,vl,hu: 32% 29% 20%  2%  3%  5%  2%  4%  2%
[libx264 @ 0x55dbdcdaef00] i8c dc,h,v,p: 57% 35%  8%  0%
[libx264 @ 0x55dbdcdaef00] Weighted P-Frames: Y:0.0% UV:0.0%
[libx264 @ 0x55dbdcdaef00] kb/s:149.83
Exiting normally, received signal 2.
